<?xml version="1.0" encoding="utf-8"?>
<!-- Generator: Adobe Illustrator 28.3.0, SVG Export Plug-In . SVG Version: 6.00 Build 0)  -->
<svg version="1.1" id="Layer_1" xmlns="http://www.w3.org/2000/svg" xmlns:xlink="http://www.w3.org/1999/xlink" x="0px" y="0px"
	 viewBox="0 0 266.2978821 137.9347229" style="enable-background:new 0 0 266.2978821 137.9347229;" xml:space="preserve">
<style type="text/css">
	.st0{fill:#00A0FF;}
	.st1{opacity:0.99;}
	.st2{fill:#00A0FF;stroke:#00A0FF;stroke-width:0.5;stroke-linecap:round;stroke-linejoin:round;stroke-miterlimit:10;}
	.st3{fill:#00A0FF;stroke:#00A0FF;stroke-width:0.5875828;stroke-linecap:round;stroke-linejoin:round;stroke-miterlimit:10;}
	.st4{fill:#FFFFFF;}
	.st5{fill:#00A0FF;stroke:#00A0FF;stroke-width:0.5699787;stroke-linecap:round;stroke-linejoin:round;stroke-miterlimit:10;}
	.st6{fill:#00A0FF;stroke:#00A0FF;stroke-width:0.6657537;stroke-linecap:round;stroke-linejoin:round;stroke-miterlimit:10;}
</style>
<g>
	<g>
		<g>
			<path class="st0" d="M188.5301056,53.621891c4.5588531,2.9303169,6.7903442,6.8441315,6.7903442,11.9347572
				c0,9.6523056-8.171936,16.2494888-20.1923065,16.2494888c-12.0219269,0-20.1473846-6.5535889-20.1473846-16.2480774
				c0-5.1254387,2.1937103-9.0421486,6.7671509-11.94487c-3.560791-2.8881454-5.3666687-6.3791618-5.3666687-10.4630127
				c0-8.7850075,7.5559692-14.8214111,18.7904816-14.8214111c11.2329559,0,18.7453461,5.9928169,18.7453461,14.8214111
				c0,4.1288528-1.8130951,7.6329613-5.388382,10.471714H188.5301056z M181.980896,65.1324387
				c0-3.5738792-2.6861877-6.0639992-6.8077545-6.0639992c-4.1230469,0-6.854248,2.4901199-6.854248,6.0639992
				c0,3.5738068,2.7312012,6.062439,6.854248,6.062439C179.2947083,71.1948776,181.980896,68.7062454,181.980896,65.1324387
				 M169.3285675,43.5642662c0,2.9491386,2.3912659,5.0992546,5.844574,5.0992546
				c3.4518127,0,5.7995758-2.150116,5.7995758-5.0992546c0-2.9477234-2.3477631-5.0979156-5.7995758-5.0979156
				C171.7198334,38.4663506,169.3285675,40.6165428,169.3285675,43.5642662"/>
			<path class="st0" d="M232.0107574,53.621891c4.5603485,2.9303169,6.7918396,6.8441315,6.7918396,11.9347572
				c0,9.6523056-8.170517,16.2494888-20.1923828,16.2494888c-12.0204468,0-20.1473083-6.5535889-20.1473083-16.2480774
				c0-5.1254387,2.1951141-9.0421486,6.7670746-11.94487c-3.560791-2.8881454-5.3665924-6.3791618-5.3665924-10.4630127
				c0-8.7850075,7.5573883-14.8214111,18.7904205-14.8214111c11.2329407,0,18.7454071,5.9928169,18.7454071,14.8214111
				C237.3992157,47.2790298,235.5861359,50.7831383,232.0107574,53.621891L232.0107574,53.621891z M225.4630432,65.1324387
				c0-3.5738792-2.6861877-6.0639992-6.8078308-6.0639992c-4.1244507,0-6.8542328,2.4901199-6.8542328,6.0639992
				c0,3.5738068,2.7297821,6.062439,6.8542328,6.062439C222.7768555,71.1948776,225.4630432,68.7062454,225.4630432,65.1324387
				 M212.8106537,43.5642662c0,2.9491386,2.3913422,5.0992546,5.8445587,5.0992546
				c3.4533081,0,5.7995758-2.150116,5.7995758-5.0992546c0-2.9477234-2.3462677-5.0979156-5.7995758-5.0979156
				C215.2019958,38.4663506,212.8106537,40.6165428,212.8106537,43.5642662"/>
			<path class="st4" d="M85.6687317,34.85186c-10.1005325,0-13.7674026,7.1796684-13.7674026,7.1796684
				S67.8509598,34.85186,58.6663628,34.85186c-3.8760223,0-6.97192,1.1811256-9.2673035,2.6600075v9.752655
				c0,0,1.9329224-2.0252266,5.1297493-2.0252266c6.1417313,0,6.4185104,5.3215866,6.4185104,7.8552933v25.8437119h13.4877243
				V53.0945892c0-1.7709846,0.2033691-7.8552933,6.7568741-7.8552933c6.1417313,0,6.7562866,5.044136,6.7562866,7.5777702
				v26.1212349h13.3446121V50.0044975C101.2928162,44.8179932,97.4494476,34.85186,85.6687317,34.85186z"/>
			<path class="st4" d="M27.4952698,44.5579491v5.1123428c1.6707172-0.5374908,2.936121-1.1447525,4.0707588-1.4047966
				c2.0287971-0.4648933,3.0784149,0.9123077,3.0784149,2.8285637l0.0072899,27.8442421h13.4753761V33.2799225
				c0,0-5.741478,3.4620094-11.0652161,6.3719444C31.7381516,42.5618057,27.4952698,44.5579491,27.4952698,44.5579491z"/>
			<path class="st4" d="M150.8192596,56.4723244c0-11.7037239-9.3378296-22.2524223-22.2095795-22.2524223
				c-14.1030197,0-23.305687,10.1520882-23.305687,22.6766281c0,12.5230484,9.380661,22.6766281,23.305687,22.6766281
				c9.9676208,0,16.725235-4.7332153,19.4223633-8.1923218l-8.1152649-5.9971313c0,0-3.6399994,3.7991104-10.4681396,3.7991104
				c-8.1952209,0-9.1250076-7.0329857-9.1250076-7.0329857h29.9399033
				C150.2635345,62.1498299,150.8192596,59.1556168,150.8192596,56.4723244z M136.650177,53.9822006h-16.8850784
				c0-0.0057983-0.0007477-0.0116005-0.0007477-0.0174026c0-5.2140999,3.5949326-9.2571907,8.2583694-9.2571907
				c4.6627655,0,8.6281281,4.0430908,8.6281281,9.2571907C136.6508484,53.9706001,136.650177,53.9764023,136.650177,53.9822006z"/>
		</g>
		<path class="st5" d="M219.8421173,108.9449158c-1.5310516-0.4203873-2.8284912-0.9996185-3.8923035-1.7376862l1.6890717-2.6523056
			c0.4601746-0.7226105,1.388855-0.9753723,2.154953-0.5919189c1.6999359,0.8508911,3.5579224,1.2760391,5.5739288,1.2760391
			c1.1679993,0,2.0775146-0.1528702,2.7276001-0.4609909c0.649353-0.3069305,1.008194-0.7583694,1.0758057-1.3531265
			c0.0720825-0.6341629-0.2092896-1.1321869-0.8451233-1.4904709s-1.6377106-0.7428436-3.0050507-1.1536789
			c-1.466156-0.4502487-2.6563263-0.8909378-3.5705109-1.3220749c-0.9149017-0.4299393-1.6720276-1.0712738-2.2722321-1.9216003
			c-0.6121063-0.8672028-0.8317261-1.9964905-0.6596222-3.3866272c0.1290436-1.0424194,0.4906311-2.0616913,1.0833435-2.9288635
			c0.9230499-1.3505096,2.263504-2.3619003,4.0210876-3.0321884c1.478714-0.5636978,3.1606598-0.8455505,5.0470276-0.8455505
			c1.5782623,0,3.0604095,0.2149658,4.4463348,0.6461029c0.3241272,0.1005478,0.6316833,0.208992,0.9226532,0.325325
			c1.3418427,0.5364761,1.8321533,2.1905899,1.069519,3.4180908l0,0c-0.6385498,1.027771-1.9371033,1.3815308-3.0343933,0.8716049
			c-0.3085022-0.1433716-0.6286621-0.2724762-0.960495-0.3872452c-1.0353241-0.358284-2.0651855-0.53862-3.0904846-0.53862
			c-1.1065063,0-2.0036163,0.180336-2.6898499,0.53862c-0.6868439,0.358284-1.0659027,0.8563004-1.1381378,1.4916611
			c-0.0745239,0.6556625,0.2010651,1.1572647,0.8278351,1.5059967c0.6261597,0.348732,1.6430359,0.7380676,3.0498505,1.1692047
			c1.4446716,0.4502487,2.6204529,0.8861618,3.5256958,1.3065491c0.9052582,0.4203873,1.6600494,1.0402222,2.2637787,1.8595047
			c0.6036072,0.8204727,0.8300171,1.8965225,0.6784973,3.2293472c-0.2469482,2.1724014-1.2572937,3.8479843-3.0310364,5.0267487
			c-1.7744904,1.1799545-4.1678925,1.7687378-7.181076,1.7687378
			C222.9681396,109.5755005,221.3725739,109.365303,219.8421173,108.9449158z"/>
		<path class="st5" d="M109.7455063,108.9449158c-1.5310516-0.4203873-2.8284912-0.9996185-3.8922958-1.7376862l1.6890717-2.6523056
			c0.4601746-0.7226105,1.388855-0.9753723,2.1549454-0.5919189c1.6999283,0.8508911,3.55793,1.2760391,5.5739212,1.2760391
			c1.1680145,0,2.0775223-0.1528702,2.7276077-0.4609909c0.649353-0.3069305,1.008194-0.7583694,1.0758057-1.3531265
			c0.0720901-0.6341629-0.2092819-1.1321869-0.8451157-1.4904709s-1.6377182-0.7428436-3.0050507-1.1536789
			c-1.466156-0.4502487-2.6563263-0.8909378-3.5705109-1.3220749c-0.9149094-0.4299393-1.6720352-1.0712738-2.2722397-1.9216003
			c-0.612114-0.8672028-0.8317261-1.9964905-0.6596222-3.3866272c0.1290512-1.0424194,0.4906387-2.0616913,1.0833435-2.9288635
			c0.9230576-1.3505096,2.263504-2.3619003,4.0210953-3.0321884c1.4787064-0.5636978,3.1606522-0.8455505,5.0470276-0.8455505
			c1.5782471,0,3.0604019,0.2149658,4.4463272,0.6461029c0.3241348,0.1005478,0.631691,0.208992,0.9226608,0.325325
			c1.3418427,0.5364761,1.8321533,2.1905899,1.0695114,3.4180908l0,0c-0.6385498,1.027771-1.9371033,1.3815308-3.0343857,0.8716049
			c-0.3085022-0.1433716-0.6286621-0.2724762-0.960495-0.3872452c-1.0353241-0.358284-2.0652008-0.53862-3.0904922-0.53862
			c-1.1065063,0-2.0036087,0.180336-2.6898499,0.53862c-0.6868362,0.358284-1.0659103,0.8563004-1.1381302,1.4916611
			c-0.0745316,0.6556625,0.2010574,1.1572647,0.8278198,1.5059967c0.6261749,0.348732,1.6430435,0.7380676,3.0498657,1.1692047
			c1.4446564,0.4502487,2.6204453,0.8861618,3.5256958,1.3065491s1.6600418,1.0402222,2.2637787,1.8595047
			c0.6035995,0.8204727,0.8300095,1.8965225,0.6784973,3.2293472c-0.2469482,2.1724014-1.2573013,3.8479843-3.0310516,5.0267487
			c-1.7744827,1.1799545-4.1678772,1.7687378-7.1810608,1.7687378
			C112.8715286,109.5755005,111.2759705,109.365303,109.7455063,108.9449158z"/>
		<path class="st5" d="M147.157486,89.3574371c1.1700897,1.1584549,1.6409607,2.7420807,1.4126129,4.7508698
			c-0.2680054,2.3575134-1.1609344,4.1716385-2.6788177,5.4423599c-1.5180054,1.2719116-3.568573,1.9072723-6.1512146,1.9072723
			h-4.9503021l-1.0003815,5.2069626c-0.2936707,1.5285873-1.6311035,2.633522-3.1876373,2.633522h-2.9762421l4.1863556-21.6774826
			h10.1161957C144.2443695,87.6209412,145.9872742,88.2001724,147.157486,89.3574371z M143.2772217,94.4164276
			c0.0978851-0.8610764-0.0711365-1.4964371-0.5057373-1.9072723c-0.435318-0.4096375-1.1448059-0.6138611-2.128891-0.6138611
			h-3.9972687l-1.0352325,5.3193436h4.0587921C141.8621826,97.2146378,143.0651703,96.2819061,143.2772217,94.4164276z"/>
		<path class="st5" d="M155.4968872,108.330452c-1.5239868-0.8503265-2.6309052-2.0601425-3.3244781-3.6282349
			c-0.6929779-1.5681-0.9167786-3.4287949-0.6721344-5.5809021c0.265686-2.3372116,0.9506531-4.4021378,2.0568542-6.1959534
			s2.5448761-3.176796,4.3157196-4.1513367c1.7706909-0.9733429,3.7536621-1.4606094,5.9463654-1.4606094
			c2.1735992,0,4.0216675,0.4263611,5.5444489,1.2766953c1.5227966,0.8503265,2.6291656,2.0649185,3.3215179,3.6437607
			c0.6899719,1.5788498,0.9162445,3.4335709,0.6739044,5.5653687c-0.265686,2.3372192-0.9560852,4.3973618-2.0712128,6.1804352
			c-1.1151276,1.7830658-2.5575256,3.167244-4.3318329,4.1513367c-1.7719269,0.9840851-3.7433624,1.4749374-5.9169617,1.4749374
			S157.0172882,109.1807861,155.4968872,108.330452z M165.6332855,103.2726517
			c1.1118011-1.3125153,1.80159-3.1361923,2.067276-5.4734116c0.2214203-1.947876-0.046875-3.4538727-0.8070221-4.5203705
			c-0.7602844-1.0653-1.929718-1.599144-3.5085602-1.599144c-1.6815491,0-3.077652,0.6616364-4.1929169,1.9837036
			c-1.1128845,1.3220749-1.8022766,3.1421661-2.065506,5.4578857c-0.2237396,1.9681854,0.0391083,3.4801483,0.7909241,4.5358963
			c0.7518158,1.0557556,1.9363861,1.5824356,3.5558472,1.5824356
			C163.1357727,105.2396469,164.5216217,104.5839767,165.6332855,103.2726517z"/>
		<path class="st5" d="M194.6587067,109.2984238h-4.2963867c-1.0974731,0-2.0807037-0.6783981-2.4702454-1.7044067
			l-1.9796906-5.2140884c-0.2985077-0.7989807-0.9600525-1.1990662-1.9847412-1.1990662h-1.6911163l-1.0055237,5.3078232
			c-0.3087769,1.6298828-1.733139,2.8097382-3.3920135,2.8097382h-2.705658l4.1553192-21.6774826h10.5467224
			c2.275116,0,3.9815979,0.5792313,5.1219635,1.736496c1.1390228,1.1584549,1.5989838,2.7014694,1.3800049,4.6278534
			c-0.2214355,1.9478836-0.8523712,3.4849243-1.8929596,4.6123352c-1.0406036,1.1274033-2.5422211,1.8559189-4.5070038,2.1831512
			c0.5760193,0.1648102,1.0413513,0.4418869,1.3973083,0.8300323c0.3556976,0.3905258,0.6605225,0.9028778,0.9167175,1.5382385
			L194.6587067,109.2984238z M187.6381531,96.9375687c1.0043945,0,1.7931976-0.2257233,2.3674774-0.6759644
			c0.5744171-0.4514465,0.9092712-1.0963593,1.0049896-1.9383316c0.0931396-0.8192749-0.0584412-1.4295578-0.4537811-1.8284454
			c-0.3952179-0.4000854-1.0544739-0.5995331-1.9764709-0.5995331h-4.5812836l-0.942215,5.0422745H187.6381531z"/>
		<path class="st5" d="M201.6933136,109.2984238l3.2965393-17.096199h-5.1094818
			c-0.7303925,0-1.2795563-0.6660843-1.1402893-1.3830872l0.3655396-1.8820496
			c0.1484528-0.7642975,0.8177948-1.3161469,1.5963745-1.3161469h15.3821564c1.022522,0,1.7913361,0.9325027,1.5963745,1.9362717
			l-0.5137329,2.6450119h-6.4885559l-2.8169098,14.7477112c-0.2603149,1.3628006-1.4520874,2.3484879-2.8395233,2.3484879
			H201.6933136z"/>
	</g>
	<rect x="27.4952698" y="97.1991119" class="st0" width="73.7975464" height="1.2605685"/>
</g>
</svg>
