<svg xmlns="http://www.w3.org/2000/svg" xmlns:xlink="http://www.w3.org/1999/xlink" viewBox="0 0 1319.66 204.2"><defs><style>.cls-1{fill:url(#linear-gradient);}.cls-2{fill:url(#linear-gradient-2);}.cls-3{fill:url(#linear-gradient-3);}.cls-4{fill:url(#linear-gradient-4);}.cls-5{fill:url(#linear-gradient-5);}.cls-6{fill:url(#linear-gradient-6);}.cls-7{fill:url(#linear-gradient-7);}.cls-8{fill:url(#linear-gradient-8);}.cls-9{fill:url(#linear-gradient-9);}.cls-10{fill:url(#linear-gradient-10);}.cls-11{fill:url(#linear-gradient-11);}.cls-12{fill:url(#linear-gradient-12);}.cls-13{fill:url(#linear-gradient-13);}.cls-14{fill:url(#linear-gradient-14);}.cls-15{fill:url(#linear-gradient-15);}.cls-16{fill:url(#linear-gradient-16);}.cls-17{fill:url(#linear-gradient-17);}.cls-18{fill:url(#linear-gradient-18);}.cls-19{fill:url(#linear-gradient-19);}.cls-20{fill:url(#linear-gradient-20);}.cls-21{fill:url(#linear-gradient-21);}.cls-22{fill:url(#linear-gradient-22);}.cls-23{fill:url(#linear-gradient-23);}.cls-24{fill:url(#linear-gradient-24);}.cls-25{fill:url(#linear-gradient-25);}.cls-26{fill:#001b42;}</style><linearGradient id="linear-gradient" x1="1190.55" y1="122.41" x2="700.94" y2="122.41" gradientUnits="userSpaceOnUse"><stop offset="0" stop-color="#cc2155"/><stop offset="1" stop-color="#ff4e00"/></linearGradient><linearGradient id="linear-gradient-2" x1="1184.49" y1="122.41" x2="694.88" y2="122.41" xlink:href="#linear-gradient"/><linearGradient id="linear-gradient-3" x1="1181.63" y1="122.41" x2="692.02" y2="122.41" xlink:href="#linear-gradient"/><linearGradient id="linear-gradient-4" x1="1167.64" y1="120.95" x2="678.03" y2="120.95" xlink:href="#linear-gradient"/><linearGradient id="linear-gradient-5" x1="1162.51" y1="122.41" x2="672.9" y2="122.41" xlink:href="#linear-gradient"/><linearGradient id="linear-gradient-6" x1="1163.69" y1="100.64" x2="674.08" y2="100.64" xlink:href="#linear-gradient"/><linearGradient id="linear-gradient-7" x1="1146.65" y1="100.64" x2="686.1" y2="100.64" xlink:href="#linear-gradient"/><linearGradient id="linear-gradient-8" x1="1117.8" y1="118.27" x2="1259.64" y2="118.27" xlink:href="#linear-gradient"/><linearGradient id="linear-gradient-9" x1="1122.49" y1="170.68" x2="1259.53" y2="170.68" xlink:href="#linear-gradient"/><linearGradient id="linear-gradient-10" x1="1110.12" y1="198.26" x2="1255.12" y2="198.26" xlink:href="#linear-gradient"/><linearGradient id="linear-gradient-11" x1="1114.17" y1="83.2" x2="1255.33" y2="83.2" xlink:href="#linear-gradient"/><linearGradient id="linear-gradient-12" x1="734.3" y1="-109.91" x2="872.83" y2="-109.91" gradientTransform="matrix(0.99, 0.01, -0.04, 0.97, 383.81, 250.93)" xlink:href="#linear-gradient"/><linearGradient id="linear-gradient-13" x1="1170.28" y1="65.5" x2="1274.8" y2="65.5" xlink:href="#linear-gradient"/><linearGradient id="linear-gradient-14" x1="1104.19" y1="38.36" x2="1255.41" y2="38.36" xlink:href="#linear-gradient"/><linearGradient id="linear-gradient-15" x1="1106.4" y1="44.21" x2="1257.62" y2="44.21" xlink:href="#linear-gradient"/><linearGradient id="linear-gradient-16" x1="1106.4" y1="77.86" x2="1257.62" y2="77.86" xlink:href="#linear-gradient"/><linearGradient id="linear-gradient-17" x1="1106.4" y1="124.63" x2="1257.62" y2="124.63" xlink:href="#linear-gradient"/><linearGradient id="linear-gradient-18" x1="1106.4" y1="156.07" x2="1257.62" y2="156.07" xlink:href="#linear-gradient"/><linearGradient id="linear-gradient-19" x1="1104.39" y1="36.15" x2="1255.61" y2="36.15" xlink:href="#linear-gradient"/><linearGradient id="linear-gradient-20" x1="1106.4" y1="10.91" x2="1257.62" y2="10.91" xlink:href="#linear-gradient"/><linearGradient id="linear-gradient-21" x1="1106.4" y1="33.67" x2="1257.62" y2="33.67" xlink:href="#linear-gradient"/><linearGradient id="linear-gradient-22" x1="1106.4" y1="94.11" x2="1257.62" y2="94.11" xlink:href="#linear-gradient"/><linearGradient id="linear-gradient-23" x1="1106.4" y1="158.65" x2="1257.62" y2="158.65" xlink:href="#linear-gradient"/><linearGradient id="linear-gradient-24" x1="1103.92" y1="187.86" x2="1255.14" y2="187.86" xlink:href="#linear-gradient"/><linearGradient id="linear-gradient-25" x1="1182.05" y1="102.52" x2="1217.02" y2="102.52" xlink:href="#linear-gradient"/></defs><g id="Layer_2" data-name="Layer 2"><g id="Layer_1-2" data-name="Layer 1"><path class="cls-1" d="M445.59,144.19c0,22.44-16.38,37.93-48.26,37.93-21.77,0-43.77-8.75-48.93-27.83l27.38-8.53c.9,4.71,5.39,12.34,22,12.34,11.9,0,18.63-4.26,18.63-11.89,0-10.78-16.38-10.33-29.85-13.25-22-4.49-33.22-15-33.22-34.56,0-21.55,18-35.69,44.67-35.69,19.52,0,38.83,9.65,43.54,29.4L415.74,98.4c-1.35-5.84-7-11.68-17.73-11.68-8.31,0-16.84,3.15-16.84,11.68,0,10.1,15.26,10.77,24.24,12.79C433.25,117.25,445.59,124.88,445.59,144.19Z"/><path class="cls-2" d="M538.3,140.15l24.92,14.14C552.66,171.12,534,182.12,512,182.12c-34.12,0-60.16-26.48-60.16-59.71,0-33.44,26-59.7,60.16-59.7,22,0,40.62,11,51.18,27.61L538.3,104.68c-5.16-8.75-14.14-14.59-26.26-14.59-19.08,0-31,14.59-31,32.32s11.9,32.33,31,32.33C524.16,154.74,533.14,148.9,538.3,140.15Z"/><path class="cls-3" d="M688.3,122.41c0,33.23-25.81,59.71-60.15,59.71-34.12,0-59.93-26.48-59.93-59.71,0-33.44,25.81-59.7,59.93-59.7C662.49,62.71,688.3,89,688.3,122.41Zm-29.17,0c0-17.73-11.9-32.32-31-32.32-18.86,0-30.75,14.59-30.75,32.32s11.89,32.33,30.75,32.33C647.23,154.74,659.13,140.15,659.13,122.41Z"/><path class="cls-4" d="M761,62.71v31c-33.67-4-37.94,17.51-37.94,38.61V179.2h-28.5V65.4H723V84C731.55,69.89,747.26,62.71,761,62.71Z"/><path class="cls-5" d="M881.75,133.41H797.36c4,15.27,16.61,23.35,32.32,23.35,13,0,22-7,25.36-11.23L877.94,159c-9.2,12.79-26.71,23.12-48.26,23.12-37.71,0-62.63-25.14-62.63-59.71,0-35.69,26.71-59.7,58.14-59.7C859.53,62.71,886.92,88.52,881.75,133.41Zm-27.83-22c-2.92-14.81-13-23.34-28.28-23.34-13.92,0-24.92,8.76-28.28,23.34Z"/><path class="cls-6" d="M1001.22,148H936.58L926,179.2H893.71L950.27,22.08h37.26L1044.1,179.2h-32.33ZM992,120.84l-23.12-68-23.12,68Z"/><path class="cls-7" d="M1049.15,22.08h28.5V179.2h-28.5Z"/><path class="cls-8" d="M1315.79,99.64s-9.71-9.14-17.7-11.3a1.9,1.9,0,0,0-2.29,1.23c-1.53,4.53-6.34,17.85-13.43,29a2.52,2.52,0,0,0-.1,2.53c2.42,4.48,10.47,19.47,14.11,27.12,0,0,11.6-4.24,19-13.71C1315.4,134.55,1324.71,118.12,1315.79,99.64Z"/><path class="cls-9" d="M1313.45,148.28s-3.45,5.6-16.74,11.06a2.62,2.62,0,0,0-1.48,1.51,62.49,62.49,0,0,1-21,27.54,2.53,2.53,0,0,0-1,2.72l.58,2a70.33,70.33,0,0,0,23.56-17.49A86.82,86.82,0,0,0,1313.45,148.28Z"/><path class="cls-10" d="M1261.13,192.36a78.78,78.78,0,0,1-33.06,1,3,3,0,0,0-2.68.86,50.33,50.33,0,0,1-9.76,8.09s12.32,4.53,33.79-.3c0,0,10.63-2.7,14.79-5.24l-.91-3.09A1.83,1.83,0,0,0,1261.13,192.36Z"/><path class="cls-11" d="M1265,54.71s-4.27-2.61-15.86-2.92-16.75,1.34-18.21,1.58a3,3,0,0,0-2.11,1.46c-2.35,4.09-10,17.5-13.91,26a2.81,2.81,0,0,0,.17,2.68l18.46,29.7a3.1,3.1,0,0,0,2.67,1.46l33.08-.41a3.56,3.56,0,0,0,3-1.73,121.72,121.72,0,0,0,7.39-14.31,87.85,87.85,0,0,0,4.7-14.57,3.28,3.28,0,0,0,0-1.43c-.27-1.09-1.66-7.52-7.68-15.86S1265,54.71,1265,54.71Z"/><path class="cls-12" d="M1269.86,126.23l-35,.14a3.79,3.79,0,0,0-3.08,1.6c-3.42,4.84-13.76,19.43-17.93,24.67a3,3,0,0,0-.48,2.94c1.44,3.84,5.92,13.16,11.87,23.67a2.73,2.73,0,0,0,1.75,1.32c4.71,1.17,21.77,5.41,35.44-.84,13.11-6,20.11-20.33,22.08-24.63a3.07,3.07,0,0,0,0-2.5c-1.86-4.35-8.31-19.17-11.9-24.88A3.19,3.19,0,0,0,1269.86,126.23Z"/><path class="cls-13" d="M1312.68,67.41c-5.94-11.75-12.85-20.27-19.67-26.3A16.39,16.39,0,0,1,1285.29,55a71.88,71.88,0,0,1,10.48,18.71,2.92,2.92,0,0,0,1.71,1.73c4,1.45,16.29,6.51,21.11,14.42A60.56,60.56,0,0,0,1312.68,67.41Z"/><path class="cls-14" d="M1222.2,47.15a10.85,10.85,0,0,1,5.28-5.94,11.22,11.22,0,0,1,7.89-1.08,10.44,10.44,0,1,0-5.33-10.9h0a11,11,0,0,1-5.55,6.25,10.6,10.6,0,0,1-8.41.76h0a10.43,10.43,0,1,0,6.12,10.92Z"/><path class="cls-15" d="M1187.74,53.18a10.86,10.86,0,0,1-.46-7.93,11.22,11.22,0,0,1,4.81-6.35A10.44,10.44,0,1,0,1180.62,35h0a11,11,0,0,1,.5,8.34,10.64,10.64,0,0,1-5.42,6.48h0a10.43,10.43,0,1,0,12,3.39Z"/><path class="cls-16" d="M1161.27,81.76a10.85,10.85,0,0,1-5.94-5.28,11.28,11.28,0,0,1-1.08-7.89,10.45,10.45,0,1,0-10.9,5.32h0a11,11,0,0,1,6.26,5.55,10.62,10.62,0,0,1,.75,8.41h0a10.43,10.43,0,1,0,10.91-6.12Z"/><path class="cls-17" d="M1163.23,121.17a10.83,10.83,0,0,1-7.92.46,11.22,11.22,0,0,1-6.35-4.81,10.44,10.44,0,1,0-3.94,11.47h0a11,11,0,0,1,8.34-.5,10.61,10.61,0,0,1,6.48,5.42h0a10.43,10.43,0,1,0,3.38-12Z"/><path class="cls-18" d="M1188.17,147.28a10.8,10.8,0,0,1-5.28,5.93,11.24,11.24,0,0,1-7.89,1.09,10.44,10.44,0,1,0,5.33,10.89h0a10.91,10.91,0,0,1,5.54-6.25,10.6,10.6,0,0,1,8.42-.75h0a10.43,10.43,0,1,0-6.12-10.91Z"/><circle class="cls-19" cx="1273.16" cy="36.15" r="10.9"/><circle class="cls-20" cx="1214.81" cy="10.91" r="10.9"/><circle class="cls-21" cx="1150.59" cy="33.67" r="10.9"/><circle class="cls-22" cx="1121.3" cy="94.11" r="10.9"/><circle class="cls-23" cx="1143.81" cy="158.65" r="10.9"/><circle class="cls-24" cx="1202.24" cy="187.86" r="10.9"/><path class="cls-25" d="M1208.22,106.63a10.73,10.73,0,0,1-5.8-5.42,11.28,11.28,0,0,1-.89-7.92,10.43,10.43,0,1,0-11,5.06h0a11,11,0,0,1,6.11,5.7,10.61,10.61,0,0,1,.54,8.43h0a10.42,10.42,0,1,0,11.06-5.85Z"/><path class="cls-26" d="M195,103.7v76.63H159.92v-69.2c0-6.67-1.54-20-17.94-20-17.43,0-17.94,16.14-17.94,20.76v68.43H88.42V111.9c0-6.67-.77-20.76-16.92-20.76a19.94,19.94,0,0,0-13.58,5.38V70.64a45.78,45.78,0,0,1,24.6-6.92,41.39,41.39,0,0,1,35.11,19s9.49-19.22,36.14-19.22C185,63.46,195,89.86,195,103.7ZM0,89.34v13.59c4.36-1.54,7.69-3.08,10.76-3.59,5.39-1.28,8.21,2.31,8.21,7.43v73.56H54.59v-121S39.47,68.58,25.37,76.27,0,89.34,0,89.34Zm324.71,46.39H245.52s2.56,18.71,24.09,18.71c17.94,0,27.68-10,27.68-10l21.53,15.88c-7.18,9.23-25.12,21.79-51.26,21.79-36.9,0-61.51-26.91-61.51-60s24.35-60,61.51-60c34.09,0,58.69,27.93,58.69,58.94A144.5,144.5,0,0,1,324.71,135.73ZM288.58,114.2c0-13.84-10.51-24.6-22.81-24.6S244,100.36,244,114.2h44.6Z"/></g></g></svg>